<?xml version="1.0" encoding="UTF-8" standalone="no"?>
<!-- Created with Inkscape (http://www.inkscape.org/) -->

<svg
   xmlns:dc="http://purl.org/dc/elements/1.1/"
   xmlns:cc="http://creativecommons.org/ns#"
   xmlns:rdf="http://www.w3.org/1999/02/22-rdf-syntax-ns#"
   xmlns:svg="http://www.w3.org/2000/svg"
   xmlns="http://www.w3.org/2000/svg"
   xmlns:sodipodi="http://sodipodi.sourceforge.net/DTD/sodipodi-0.dtd"
   xmlns:inkscape="http://www.inkscape.org/namespaces/inkscape"
   width="100.98094"
   height="92.488564"
   id="svg3069"
   version="1.1"
   inkscape:version="0.92.3 (2405546, 2018-03-11)"
   sodipodi:docname="icon.svg">
  <defs
     id="defs3071" />
  <sodipodi:namedview
     id="base"
     pagecolor="#ffffff"
     bordercolor="#666666"
     borderopacity="1.0"
     inkscape:pageopacity="0.0"
     inkscape:pageshadow="2"
     inkscape:zoom="5.6568542"
     inkscape:cx="-89.192428"
     inkscape:cy="-8.0034754"
     inkscape:document-units="px"
     inkscape:current-layer="layer1"
     showgrid="false"
     fit-margin-top="0"
     fit-margin-left="0"
     fit-margin-right="0"
     fit-margin-bottom="0"
     inkscape:window-width="3840"
     inkscape:window-height="2105"
     inkscape:window-x="1920"
     inkscape:window-y="0"
     inkscape:window-maximized="1" />
  <metadata
     id="metadata3074">
    <rdf:RDF>
      <cc:Work
         rdf:about="">
        <dc:format>image/svg+xml</dc:format>
        <dc:type
           rdf:resource="http://purl.org/dc/dcmitype/StillImage" />
        <dc:title></dc:title>
      </cc:Work>
    </rdf:RDF>
  </metadata>
  <g
     inkscape:label="Layer 1"
     inkscape:groupmode="layer"
     id="layer1"
     transform="translate(-346.65239,-694.68933)">
    <g
       id="g11">
      <path
         id="path3299-8"
         d="m 397.98885,787.17706 h -51.33646 l 16.79682,-15.47783 34.35419,0.1917 c 14.59224,0 21.89774,-7.92645 21.89774,-23.78768 v -14.3422 h 27.93219 v 7.36384 c -0.002,30.83064 -16.55094,46.18344 -49.64448,46.05217 M 347.02537,747.9178 v -6.79291 c 0,-30.57641 16.73431,-46.05841 50.20709,-46.43556 h 50.40087 l -16.61762,15.47575 h -19.2431 c -23.91478,0 -35.8628,7.92853 -35.8628,23.78767 v 13.96505 z"
         inkscape:connector-curvature="0"
         style="fill:#b9c382" />
      <path
         id="path3301-4"
         d="m 408.73456,742.74811 c 0,-6.20113 -5.01758,-11.22288 -11.22288,-11.22288 -6.19905,0 -11.2208,5.02175 -11.2208,11.22288 0,6.19697 5.02175,11.22288 11.2208,11.22288 6.2053,0 11.22288,-5.02591 11.22288,-11.22288"
         inkscape:connector-curvature="0"
         style="fill:#232960" />
    </g>
    <g
       id="g4585"
       transform="translate(83.111506,-62.755727)"
       style="fill:#232960;fill-opacity:1">
      <path
         d="m 274.08948,839.93138 c 0,3.28 -0.52,4.12 -2.6,4.4 l -1,0.12 v 1.24 h 12.2 c 6.2,0 9.52,-0.88 12.32,-3.32 2.68,-2.32 4.32,-6.16 4.32,-10.08 0,-3.8 -1.56,-7.76 -4,-10.08 -2.76,-2.6 -6.6,-3.76 -12.64,-3.76 h -12.2 v 1.24 l 1,0.12 c 2.08,0.28 2.6,1.12 2.6,4.4 z m 4,-16.16 c 0,-1.56 0.12,-2.28 0.48,-2.68 0.48,-0.6 2.24,-1 4.28,-1 4.36,0 7.56,1.4 9.56,4.24 1.4,2 2.2,4.72 2.2,7.68 0,3.2 -0.92,6.24 -2.56,8.28 -1.96,2.44 -5.2,3.76 -9.24,3.76 -1.96,0 -3.6,-0.36 -4.16,-0.88 -0.44,-0.4 -0.56,-1.04 -0.56,-2.64 z"
         style="font-style:normal;font-variant:normal;font-weight:normal;font-stretch:normal;font-size:40px;line-height:1.25;font-family:'URW Bookman L';-inkscape-font-specification:'URW Bookman L, Normal';font-variant-ligatures:normal;font-variant-caps:normal;font-variant-numeric:normal;font-feature-settings:normal;text-align:start;letter-spacing:0px;word-spacing:0px;writing-mode:lr-tb;text-anchor:start;fill:#232960;fill-opacity:1;stroke:none"
         id="path4558"
         inkscape:connector-curvature="0" />
      <path
         d="m 309.36073,826.29138 h -1.36 c -2.44,0.44 -3.76,0.64 -5.88,0.8 v 1.2 l 0.8,0.08 c 2.08,0.2 2.64,0.92 2.64,3.32 v 9.4 c 0,2.2 -0.72,3.12 -2.48,3.32 l -1,0.08 v 1.2 h 10.72 v -1.2 l -0.96,-0.08 c -1.8,-0.2 -2.48,-1.12 -2.48,-3.32 z m -1.84,-6.76 c -1.36,0 -2.44,1.08 -2.44,2.4 0,1.36 1.08,2.44 2.4,2.44 1.36,0 2.44,-1.08 2.44,-2.4 0,-1.32 -1.08,-2.44 -2.4,-2.44 z"
         style="font-style:normal;font-variant:normal;font-weight:normal;font-stretch:normal;font-size:40px;line-height:1.25;font-family:'URW Bookman L';-inkscape-font-specification:'URW Bookman L, Normal';font-variant-ligatures:normal;font-variant-caps:normal;font-variant-numeric:normal;font-feature-settings:normal;text-align:start;letter-spacing:0px;word-spacing:0px;writing-mode:lr-tb;text-anchor:start;fill:#232960;fill-opacity:1;stroke:none"
         id="path4560"
         inkscape:connector-curvature="0" />
      <path
         d="m 330.07198,826.45138 h -1.12 l -0.4,1.44 c -1.72,-1.36 -3.48,-1.96 -5.72,-1.96 -4.08,0 -7.32,2.56 -7.32,5.84 0,2.52 1.72,4 5.96,5.08 l 5.12,1.28 c 2,0.52 2.92,1.36 2.92,2.64 0,2.08 -2.24,3.68 -5.16,3.68 -2.48,0 -4.92,-1.08 -6.4,-2.88 -0.72,-0.84 -1.12,-1.64 -1.68,-3.16 h -1.36 l 1.36,7.12 h 1.32 l 0.44,-1.68 c 2.16,1.64 3.84,2.2 6.44,2.2 4.8,0 8.32,-2.76 8.32,-6.48 0,-2.72 -1.6,-4.32 -5.08,-5.16 l -5.56,-1.36 c -0.96,-0.24 -1.44,-0.4 -1.88,-0.6 -0.76,-0.4 -1.24,-1.12 -1.24,-1.92 0,-1.72 1.68,-3 4.04,-3 3.04,0 5.68,1.92 7,5.08 h 1.28 z"
         style="font-style:normal;font-variant:normal;font-weight:normal;font-stretch:normal;font-size:40px;line-height:1.25;font-family:'URW Bookman L';-inkscape-font-specification:'URW Bookman L, Normal';font-variant-ligatures:normal;font-variant-caps:normal;font-variant-numeric:normal;font-feature-settings:normal;text-align:start;letter-spacing:0px;word-spacing:0px;writing-mode:lr-tb;text-anchor:start;fill:#232960;fill-opacity:1;stroke:none"
         id="path4562"
         inkscape:connector-curvature="0" />
      <path
         d="m 348.97323,834.33138 c -4.8,0.52 -5,0.56 -6.76,1 -4.44,1.12 -6.72,3.08 -6.72,5.76 0,2.88 2.6,4.96 6.16,4.96 2.68,0 4.64,-0.84 7.32,-3.08 0.76,2.16 2.12,3.08 4.48,3.08 1.68,0 3,-0.48 4.12,-1.56 l -0.76,-1.04 c -0.68,0.6 -1.12,0.8 -1.8,0.8 -0.84,0 -1.56,-0.44 -1.88,-1.12 -0.28,-0.56 -0.36,-1.08 -0.36,-2.8 v -8.48 c 0,-2.4 -0.64,-3.64 -2.28,-4.56 -1.48,-0.84 -3.56,-1.36 -5.4,-1.36 -1.72,0 -3.88,0.48 -5.48,1.16 -1.88,0.84 -3.24,2.52 -3.24,3.92 0,0.96 0.88,1.76 1.92,1.76 1.12,0 2.04,-0.92 2.04,-2.04 l -0.04,-1.12 c 0,-1.16 1.8,-2.08 4.04,-2.08 2.84,0 4.64,1.4 4.64,3.6 z m 0,6.84 c -2.24,2.12 -3.92,2.96 -5.92,2.96 -1.92,0 -3.48,-1.52 -3.48,-3.44 0,-2.68 3.36,-4.44 9.4,-4.96 z"
         style="font-style:normal;font-variant:normal;font-weight:normal;font-stretch:normal;font-size:40px;line-height:1.25;font-family:'URW Bookman L';-inkscape-font-specification:'URW Bookman L, Normal';font-variant-ligatures:normal;font-variant-caps:normal;font-variant-numeric:normal;font-feature-settings:normal;text-align:start;letter-spacing:0px;word-spacing:0px;writing-mode:lr-tb;text-anchor:start;fill:#232960;fill-opacity:1;stroke:none"
         id="path4564"
         inkscape:connector-curvature="0" />
    </g>
  </g>
</svg>
